<svg width="16" height="16" viewBox="0 0 16 16" fill="none" xmlns="http://www.w3.org/2000/svg">
<path fill-rule="evenodd" clip-rule="evenodd" d="M7.33331 2.66659C4.75598 2.66659 2.66665 4.75592 2.66665 7.33325C2.66665 9.91058 4.75598 11.9999 7.33331 11.9999C9.91064 11.9999 12 9.91058 12 7.33325C12 4.75592 9.91064 2.66659 7.33331 2.66659ZM1.33331 7.33325C1.33331 4.01954 4.0196 1.33325 7.33331 1.33325C10.647 1.33325 13.3333 4.01954 13.3333 7.33325C13.3333 10.647 10.647 13.3333 7.33331 13.3333C4.0196 13.3333 1.33331 10.647 1.33331 7.33325Z" fill="#A7A7A7"/>
<path fill-rule="evenodd" clip-rule="evenodd" d="M10.6286 10.6286C10.889 10.3683 11.3111 10.3683 11.5714 10.6286L14.4714 13.5286C14.7318 13.789 14.7318 14.2111 14.4714 14.4714C14.2111 14.7318 13.789 14.7318 13.5286 14.4714L10.6286 11.5714C10.3683 11.3111 10.3683 10.889 10.6286 10.6286Z" fill="#A7A7A7"/>
</svg>
